<svg xmlns="http://www.w3.org/2000/svg"  viewBox="0 0 64 64" width="64px" height="64px"><path fill="orange" d="M48.26,48.26c-3.47,3.48-7.77,5.6-12.26,6.38c-2.64,0.48-5.36,0.48-8,0	c-4.49-0.78-8.79-2.9-12.26-6.38c-8.99-8.98-8.99-23.54,0-32.52c8.98-8.99,23.54-8.99,32.52,0C57.25,24.72,57.25,39.28,48.26,48.26z"/><ellipse cx="32" cy="61" opacity=".3" rx="19" ry="3"/><path fill="#fff" d="M32,14c2.577,0,4.674-1.957,4.946-4.461C35.352,9.19,33.699,9,32,9 C19.297,9,9,19.297,9,32c0,1.699,0.19,3.352,0.539,4.946C12.044,36.674,14,34.577,14,32C14,22.075,22.075,14,32,14z" opacity=".3"/><path d="M54.461,27.054C51.956,27.326,50,29.423,50,32c0,9.925-8.075,18-18,18 c-2.577,0-4.674,1.957-4.946,4.461C28.648,54.81,30.301,55,32,55c12.703,0,23-10.297,23-23C55,30.301,54.81,28.648,54.461,27.054z" opacity=".15"/><path fill="#fff" d="M15.046,24.927c-0.229,0-0.46-0.052-0.678-0.163c-0.739-0.375-1.034-1.278-0.659-2.017	c2.02-3.977,5.339-7.241,9.348-9.192c0.742-0.362,1.643-0.053,2.005,0.692c0.362,0.745,0.053,1.643-0.692,2.005	c-3.425,1.667-6.26,4.456-7.984,7.853C16.12,24.627,15.593,24.927,15.046,24.927z"/><circle cx="20" cy="32" r="3" fill="#fff"/><path fill="#fff" d="M32,27c-7.732,0-14,4.253-14,9.5S24.268,46,32,46s14-4.253,14-9.5S39.732,27,32,27z M26.5,37	c-1.381,0-2.5-1.119-2.5-2.5c0-1.381,1.119-2.5,2.5-2.5s2.5,1.119,2.5,2.5C29,35.881,27.881,37,26.5,37z M37.5,37	c-1.381,0-2.5-1.119-2.5-2.5c0-1.381,1.119-2.5,2.5-2.5s2.5,1.119,2.5,2.5C40,35.881,38.881,37,37.5,37z"/><circle cx="41.5" cy="20.5" r="2.5" fill="#fff"/><circle cx="44" cy="32" r="3" fill="#fff"/><path fill="orange" d="M32,43.01c-2.567,0-5.134-0.765-6.699-2.295c-0.395-0.386-0.402-1.019-0.016-1.414	c0.385-0.394,1.02-0.402,1.414-0.016c2.328,2.276,8.273,2.276,10.602,0c0.395-0.387,1.029-0.378,1.414,0.016	c0.387,0.395,0.379,1.028-0.016,1.414C37.134,42.245,34.567,43.01,32,43.01z"/><path fill="#fff" d="M32.002,29.5c-0.103,0-0.207-0.011-0.311-0.033c-0.812-0.17-1.33-0.966-1.159-1.777l2-9.5	c0.085-0.403,0.331-0.753,0.682-0.969c0.351-0.215,0.771-0.28,1.173-0.171l7.5,2c0.8,0.213,1.276,1.035,1.062,1.836	c-0.213,0.8-1.034,1.278-1.836,1.062l-5.972-1.592l-1.674,7.952C33.319,29.016,32.696,29.5,32.002,29.5z"/></svg>