<svg xmlns="http://www.w3.org/2000/svg" shape-rendering="geometricPrecision" text-rendering="geometricPrecision" image-rendering="optimizeQuality" fill-rule="evenodd" clip-rule="evenodd" viewBox="0 0 512 512"><rect fill="#ff4500" width="512" height="512" rx="105" ry="105"/><path fill="#fff" fill-rule="nonzero" d="M307.75 303.16c-12.98 0-23.54-10.55-23.54-23.54 0-12.98 10.56-23.53 23.54-23.53 12.97 0 23.53 10.55 23.53 23.53 0 12.99-10.56 23.54-23.53 23.54zm4.14 38.66c-16.06 16.04-46.85 17.29-55.9 17.29-9.06 0-39.84-1.25-55.89-17.3a6.096 6.096 0 010-8.62c2.38-2.39 6.25-2.39 8.64 0 10.12 10.13 31.78 13.71 47.25 13.71 15.47 0 37.13-3.58 47.28-13.71a6.09 6.09 0 018.63.01c2.38 2.38 2.37 6.24-.01 8.62zm-131.25-62.2c0-12.98 10.56-23.53 23.55-23.53 12.97 0 23.53 10.55 23.53 23.53s-10.56 23.53-23.53 23.53c-12.99 0-23.55-10.55-23.55-23.53zm225.93-23.53c0-18.2-14.76-32.96-32.95-32.96-8.88 0-16.93 3.53-22.86 9.25-22.53-16.26-53.56-26.76-88.12-27.97l15.01-70.62 49.04 10.42c.59 12.48 10.81 22.43 23.42 22.43 13.01 0 23.54-10.54 23.54-23.54s-10.53-23.54-23.54-23.54c-9.24 0-17.16 5.38-21.01 13.14l-54.77-11.64a5.758 5.758 0 00-4.42.82 5.876 5.876 0 00-2.55 3.71L250.6 204.4c-35.09.97-66.62 11.48-89.43 27.91-5.92-5.68-13.93-9.18-22.79-9.18-18.19 0-32.95 14.76-32.95 32.96 0 13.38 8 24.88 19.47 30.04-.51 3.28-.79 6.6-.79 9.97 0 50.69 59.02 91.8 131.81 91.8 72.8 0 131.82-41.11 131.82-91.8 0-3.35-.28-6.66-.77-9.91 11.54-5.13 19.6-16.67 19.6-30.1z"/></svg>